<?xml version="1.0" encoding="UTF-8" standalone="no"?>
<!-- Created with Inkscape (http://www.inkscape.org/) -->

<svg
   width="210mm"
   height="297mm"
   viewBox="0 0 210 297"
   version="1.1"
   id="svg1"
   xml:space="preserve"
   inkscape:version="1.3 (0e150ed6c4, 2023-07-21)"
   sodipodi:docname="design.svg"
   xmlns:inkscape="http://www.inkscape.org/namespaces/inkscape"
   xmlns:sodipodi="http://sodipodi.sourceforge.net/DTD/sodipodi-0.dtd"
   xmlns="http://www.w3.org/2000/svg"
   xmlns:svg="http://www.w3.org/2000/svg"><sodipodi:namedview
     id="namedview1"
     pagecolor="#ffffff"
     bordercolor="#000000"
     borderopacity="0.25"
     inkscape:showpageshadow="2"
     inkscape:pageopacity="0.0"
     inkscape:pagecheckerboard="0"
     inkscape:deskcolor="#d1d1d1"
     inkscape:document-units="mm"
     inkscape:zoom="0.52347032"
     inkscape:cx="694.40423"
     inkscape:cy="652.37701"
     inkscape:window-width="1920"
     inkscape:window-height="1009"
     inkscape:window-x="-8"
     inkscape:window-y="-8"
     inkscape:window-maximized="1"
     inkscape:current-layer="layer1" /><defs
     id="defs1" /><g
     inkscape:label="Layer 1"
     inkscape:groupmode="layer"
     id="layer1"><rect
       style="font-variation-settings:normal;opacity:1;vector-effect:none;fill:#f2f2f2;fill-opacity:1;fill-rule:evenodd;stroke:none;stroke-width:0.262678;stroke-linecap:butt;stroke-linejoin:miter;stroke-miterlimit:4;stroke-dasharray:none;stroke-dashoffset:0;stroke-opacity:1;-inkscape-stroke:none;stop-color:#000000;stop-opacity:1"
       id="rect1"
       width="180.84476"
       height="249.4657"
       x="14.296028"
       y="14.296028" /><rect
       style="font-variation-settings:normal;opacity:1;vector-effect:none;fill:none;fill-opacity:1;fill-rule:evenodd;stroke:#e6e6e6;stroke-width:0.154724;stroke-linecap:butt;stroke-linejoin:miter;stroke-miterlimit:4;stroke-dasharray:none;stroke-dashoffset:0;stroke-opacity:1;-inkscape-stroke:none;stop-color:#000000;stop-opacity:1"
       id="rect2"
       width="160.86819"
       height="9.0429878"
       x="15.415562"
       y="277.08011"
       rx="0.78582436"
       ry="0.78178018" /><rect
       style="font-variation-settings:normal;vector-effect:none;fill:#b3b3b3;fill-opacity:1;fill-rule:evenodd;stroke:none;stroke-width:0.262678;stroke-linecap:butt;stroke-linejoin:miter;stroke-miterlimit:4;stroke-dasharray:none;stroke-dashoffset:0;stroke-opacity:1;-inkscape-stroke:none;stop-color:#000000"
       id="rect3"
       width="10.543322"
       height="9.6944942"
       x="184.17978"
       y="277.06821"
       rx="1.2509025"
       ry="1.2509025" /><path
       sodipodi:type="star"
       style="opacity:0.295129;fill:#ffffff;stroke:#ffffff;stroke-width:0.1"
       id="path4"
       inkscape:flatsided="false"
       sodipodi:sides="3"
       sodipodi:cx="190.04784"
       sodipodi:cy="275.32144"
       sodipodi:r1="2.5474842"
       sodipodi:r2="1.273742"
       sodipodi:arg1="2.6179939"
       sodipodi:arg2="3.6651914"
       inkscape:rounded="0"
       inkscape:randomized="0"
       d="m 187.84165,276.59518 1.10309,-1.91061 1.1031,-1.91061 1.10309,1.91061 1.10309,1.91061 -2.20618,0 z"
       inkscape:transform-center-x="5.6273505e-06"
       inkscape:transform-center-y="-0.85978897"
       transform="matrix(1.3500084,0,0,1.3500084,-67.114729,-88.8773)" /><text
       xml:space="preserve"
       style="font-style:normal;font-variant:normal;font-weight:normal;font-stretch:normal;font-size:7.05556px;line-height:normal;font-family:D-DIN;-inkscape-font-specification:D-DIN;text-decoration-color:#000000;fill:#cccccc;stroke-width:0.264583;-inkscape-stroke:none;stop-color:#000000"
       x="20.886766"
       y="283.65375"
       id="text4"><tspan
         sodipodi:role="line"
         id="tspan4"
         style="font-style:normal;font-variant:normal;font-weight:normal;font-stretch:normal;font-family:D-DIN;-inkscape-font-specification:D-DIN;fill:#cccccc;stroke-width:0.264583"
         x="20.886766"
         y="283.65375">Prompt Here</tspan></text><path
       style="fill:#b3b3b3"
       d="m 22.03244,274.72491 c -0.17665,-0.043 -0.222788,-0.0828 -1.018595,-0.88007 -0.851609,-0.85316 -0.821619,-0.81484 -0.763436,-0.97552 l 0.02716,-0.075 -0.372694,-0.37303 -0.372694,-0.37302 -0.204706,0.10152 c -0.232267,0.11518 -0.393141,0.1718 -0.635269,0.22358 -0.240786,0.0515 -0.67775,0.0514 -0.919331,-2.8e-4 -0.730089,-0.15607 -1.324617,-0.60303 -1.656258,-1.24515 -0.304729,-0.59001 -0.352036,-1.2613 -0.133195,-1.89002 0.121803,-0.34993 0.292143,-0.61745 0.568381,-0.89266 0.367896,-0.36653 0.791494,-0.58749 1.286422,-0.67105 0.18966,-0.032 0.562326,-0.0367 0.744177,-0.009 0.898477,0.13543 1.630985,0.75276 1.920723,1.61872 0.08704,0.26014 0.11431,0.44223 0.113663,0.75891 -4.41e-4,0.21598 -0.0082,0.31008 -0.03632,0.44234 -0.06234,0.29287 -0.161745,0.55097 -0.299367,0.77727 -0.03811,0.0627 -0.06928,0.12007 -0.06928,0.12757 0,0.007 0.162734,0.17885 0.361631,0.38078 l 0.361631,0.36713 0.075,-0.0276 c 0.16033,-0.059 0.121952,-0.089 0.976146,0.76363 0.837639,0.83612 0.850877,0.85209 0.888647,1.07235 0.03717,0.21674 -0.03301,0.43524 -0.190307,0.59254 -0.177076,0.17707 -0.41296,0.24446 -0.652125,0.1863 z m 0.349649,-0.28919 c 0.07753,-0.0399 0.158115,-0.12151 0.200731,-0.20319 0.04522,-0.0867 0.04248,-0.2689 -0.0055,-0.36579 -0.02598,-0.0525 -0.252058,-0.28969 -0.756634,-0.79397 l -0.719579,-0.71915 -0.303449,0.30378 -0.303449,0.30378 0.735863,0.73337 c 0.811953,0.8092 0.790594,0.79228 0.985752,0.78098 0.05798,-0.003 0.128085,-0.0202 0.166267,-0.0398 z m -1.771073,-1.97409 0.140752,-0.14149 -0.357266,-0.35635 -0.357266,-0.35634 -0.147899,0.14195 -0.147899,0.14196 0.355588,0.35588 c 0.195573,0.19573 0.359559,0.35587 0.364413,0.35587 0.0049,0 0.07216,-0.0637 0.149577,-0.14148 z m -2.064003,-0.33339 c 0.885288,-0.13003 1.579894,-0.79135 1.775538,-1.69045 0.04177,-0.19198 0.04177,-0.63165 0,-0.82363 -0.18774,-0.86278 -0.814718,-1.48976 -1.677498,-1.6775 -0.191976,-0.0418 -0.63165,-0.0418 -0.823626,0 -0.862198,0.18762 -1.489886,0.81531 -1.677498,1.6775 -0.04177,0.19198 -0.04177,0.63165 0,0.82363 0.245906,1.13009 1.2775,1.85577 2.403084,1.69045 z m -0.538234,-0.52143 c -0.233003,-0.0377 -0.495925,-0.1412 -0.689008,-0.27126 -0.132241,-0.0891 -0.368885,-0.34464 -0.451406,-0.48748 -0.169175,-0.29285 -0.22176,-0.48791 -0.22162,-0.82209 8.8e-5,-0.21091 0.0058,-0.26173 0.04543,-0.40592 0.158598,-0.57677 0.601691,-1.007 1.186031,-1.15162 0.15755,-0.039 0.552523,-0.039 0.710074,0 0.589377,0.14586 1.034632,0.5829 1.194748,1.17269 0.02737,0.10083 0.03476,0.17872 0.03569,0.37653 0.001,0.22171 -0.0038,0.26742 -0.0436,0.41167 -0.04637,0.16808 -0.139871,0.37343 -0.231382,0.50819 -0.06801,0.10015 -0.298797,0.33094 -0.398946,0.39895 -0.138481,0.094 -0.346812,0.18795 -0.510494,0.23013 -0.174364,0.0449 -0.476317,0.0643 -0.625515,0.0402 z m 0.459929,-0.27455 c 0.521545,-0.10197 0.908986,-0.45969 1.054654,-0.97375 0.04331,-0.15285 0.04303,-0.51394 -5.18e-4,-0.66507 -0.115621,-0.40123 -0.382704,-0.71623 -0.747555,-0.88166 -0.147631,-0.0669 -0.27872,-0.0984 -0.459649,-0.11018 -0.537856,-0.0351 -1.045442,0.26223 -1.279301,0.74946 -0.0828,0.1725 -0.114651,0.2956 -0.127266,0.49178 -0.05522,0.85882 0.723814,1.55284 1.559635,1.38942 z m -0.441073,-0.46696 c -0.237931,-0.0603 -0.458117,-0.2384 -0.564926,-0.45691 -0.0801,-0.16387 -0.09327,-0.25837 -0.04459,-0.32006 0.02639,-0.0334 0.0509,-0.0457 0.09122,-0.0457 0.07503,0 0.11665,0.0412 0.151228,0.14964 0.03912,0.12271 0.0867,0.1947 0.190095,0.28767 0.12598,0.11327 0.255042,0.15083 0.46862,0.13639 0.148581,-0.0101 0.1635,-0.008 0.195363,0.0236 0.03689,0.0369 0.04551,0.11586 0.01822,0.16685 -0.009,0.0167 -0.04075,0.0391 -0.07066,0.0498 -0.08931,0.0318 -0.324964,0.0365 -0.434573,0.009 z m 0.855225,-0.78529 c -0.0239,-0.0194 -0.04359,-0.0667 -0.05938,-0.14235 -0.03304,-0.1584 -0.08374,-0.25014 -0.195355,-0.35347 -0.11551,-0.10694 -0.251566,-0.15678 -0.428046,-0.15678 -0.140821,0 -0.189635,-0.0316 -0.189635,-0.12292 0,-0.0954 0.04896,-0.13237 0.185301,-0.13989 0.330236,-0.0182 0.661562,0.17916 0.808351,0.48154 0.07132,0.14691 0.104956,0.3126 0.07711,0.37984 -0.03251,0.0785 -0.134227,0.1062 -0.19834,0.054 z m -3.257113,3.41572 c -0.02232,-0.0238 -0.03615,-0.0599 -0.03615,-0.0944 0,-0.0498 0.02737,-0.0835 0.251876,-0.30968 0.138531,-0.13958 0.273208,-0.26261 0.29928,-0.27341 0.103223,-0.0428 0.207574,0.0616 0.164817,0.16481 -0.0108,0.0261 -0.133834,0.16075 -0.27341,0.29928 -0.230239,0.22852 -0.259176,0.25188 -0.312017,0.25188 -0.03938,0 -0.06995,-0.0125 -0.09439,-0.0385 z m -0.884113,-1.40287 c -0.08554,-0.0326 -0.114936,-0.15413 -0.05124,-0.21177 0.04318,-0.0391 0.657644,-0.27558 0.715992,-0.27558 0.108854,0 0.168558,0.14076 0.09094,0.21439 -0.03045,0.0289 -0.600508,0.25527 -0.689716,0.27391 -0.02257,0.005 -0.05225,0.004 -0.06597,-9.5e-4 z m -0.324977,-1.50913 c -0.02572,-0.0257 -0.04081,-0.0598 -0.04081,-0.0922 0,-0.0324 0.01509,-0.0665 0.04081,-0.0922 l 0.04081,-0.0408 h 0.383926 0.383925 l 0.04081,0.0408 c 0.05399,0.054 0.05399,0.13041 0,0.18441 l -0.04081,0.0408 h -0.383925 -0.383926 z m 0.682451,-1.44716 c -0.182894,-0.0777 -0.345628,-0.15711 -0.361631,-0.17646 -0.016,-0.0193 -0.0291,-0.0571 -0.0291,-0.084 0,-0.0574 0.06504,-0.13042 0.11615,-0.13042 0.0499,0 0.666644,0.26396 0.711028,0.30432 0.07191,0.0654 0.03419,0.19771 -0.06235,0.21874 -0.02916,0.006 -0.14081,-0.0331 -0.3741,-0.13221 z m 1.014228,-0.98752 c -0.02743,-0.0172 -0.156499,-0.13931 -0.28681,-0.27141 -0.213899,-0.21683 -0.236931,-0.24583 -0.236931,-0.29834 0,-0.0754 0.05608,-0.13046 0.132912,-0.13046 0.04997,0 0.08395,0.0278 0.317755,0.25996 0.146629,0.1456 0.26643,0.27839 0.272315,0.30184 0.01424,0.0567 -0.01797,0.12813 -0.06813,0.15099 -0.05586,0.0254 -0.07301,0.0238 -0.131108,-0.0126 z m 4.878656,-0.0172 c -0.08981,-0.0898 -0.07052,-0.12408 0.246433,-0.43773 0.224346,-0.222 0.253344,-0.24524 0.306033,-0.24524 0.07543,0 0.130508,0.0561 0.130508,0.13284 0,0.0497 -0.02715,0.0833 -0.245244,0.3037 -0.31365,0.31695 -0.347916,0.33625 -0.43773,0.24643 z m -1.090483,-0.72415 c -0.07283,-0.051 -0.06516,-0.091 0.08555,-0.44637 0.07825,-0.18451 0.157923,-0.34857 0.177046,-0.36457 0.07152,-0.0598 0.185474,-0.0213 0.205421,0.0695 0.0084,0.0384 -0.01815,0.1165 -0.126021,0.36992 -0.0752,0.17666 -0.151804,0.33804 -0.170237,0.35861 -0.03915,0.0437 -0.11917,0.0497 -0.171758,0.0129 z m -2.558375,-0.0242 c -0.01861,-0.008 -0.04182,-0.0243 -0.05159,-0.0367 -0.02448,-0.0312 -0.272052,-0.68159 -0.272052,-0.71469 0,-0.0147 0.01551,-0.0464 0.03446,-0.0705 0.04324,-0.055 0.144041,-0.0613 0.188766,-0.0119 0.03908,0.0432 0.275575,0.65765 0.275575,0.716 0,0.0876 -0.09466,0.15135 -0.175158,0.11787 z m 1.196944,-0.25813 -0.04081,-0.0408 v -0.38392 -0.38393 l 0.04081,-0.0408 c 0.05399,-0.054 0.130412,-0.054 0.184405,0 l 0.04081,0.0408 v 0.38393 0.38392 l -0.04081,0.0408 c -0.02572,0.0257 -0.05981,0.0408 -0.0922,0.0408 -0.0324,0 -0.06648,-0.0151 -0.0922,-0.0408 z"
       id="path12" /><path
       style="fill:#b3b3b3;stroke-width:0.142088"
       d="m 24.975649,274.27457 c -0.177452,-0.0641 -0.285633,-0.22199 -0.284808,-0.41558 5.91e-4,-0.13369 0.07111,-0.2743 0.474839,-0.9465 l 0.474168,-0.78948 0.363028,-1.61202 c 0.199666,-0.88661 0.354745,-1.6203 0.34462,-1.63042 -0.01012,-0.0101 -0.118462,0.0639 -0.24075,0.16464 l -0.222342,0.18305 -0.138512,0.61993 c -0.156802,0.70179 -0.205775,0.78986 -0.43924,0.78986 -0.10765,0 -0.159565,-0.0236 -0.219013,-0.0991 -0.04285,-0.0545 -0.07792,-0.12562 -0.07792,-0.15808 0,-0.12242 0.311974,-1.4932 0.350913,-1.54189 0.06112,-0.0764 1.40877,-1.16759 1.543457,-1.24971 0.186933,-0.11399 0.493789,-0.0974 0.70767,0.0382 0.161435,0.10238 0.198558,0.1602 0.54911,0.85527 l 0.37597,0.74546 0.456528,0.31621 c 0.25109,0.17392 0.489449,0.35806 0.529685,0.40921 0.09881,0.12562 0.09205,0.25536 -0.01913,0.36653 -0.165659,0.16565 -0.270148,0.13143 -0.892194,-0.29217 l -0.564533,-0.38444 -0.140619,-0.27947 c -0.07734,-0.15372 -0.149499,-0.26409 -0.160352,-0.24527 -0.01086,0.0189 -0.0844,0.32577 -0.163435,0.68211 l -0.1437,0.6479 0.07584,0.0852 c 0.24861,0.27923 1.100475,1.30345 1.149596,1.38219 0.03225,0.0517 0.138219,0.51793 0.235485,1.03609 0.167258,0.89102 0.17377,0.94947 0.120104,1.07791 -0.0312,0.0747 -0.09981,0.16402 -0.152436,0.1985 -0.128281,0.0841 -0.359682,0.10765 -0.470875,0.048 -0.19239,-0.10319 -0.235337,-0.22083 -0.402091,-1.10146 l -0.160929,-0.84987 -0.327615,-0.36436 c -0.519677,-0.57797 -0.661047,-0.72734 -0.675083,-0.7133 -0.0072,0.007 -0.0654,0.24939 -0.129301,0.53817 -0.110689,0.50022 -0.129697,0.54817 -0.401856,1.01378 -0.874173,1.49553 -0.850709,1.46305 -1.085423,1.50251 -0.06095,0.0102 -0.168443,-0.002 -0.238876,-0.0276 z m 2.308521,-6.94213 c -0.254909,-0.0616 -0.431707,-0.24099 -0.502592,-0.51021 -0.10952,-0.41594 0.224217,-0.84586 0.656624,-0.84586 0.147485,0 0.371628,0.0841 0.479605,0.18 0.184624,0.16394 0.261565,0.53142 0.161441,0.77104 -0.06714,0.16068 -0.288401,0.35102 -0.465101,0.40009 -0.157238,0.0437 -0.168796,0.0438 -0.329977,0.005 z"
       id="path10" /><path
       style="fill:#b3b3b3;stroke-width:0.204722"
       d="m 32.555564,274.94113 c -0.09286,-0.0929 -0.0803,-0.2967 0.02068,-0.33545 0.04712,-0.0181 0.379944,-0.0329 0.739601,-0.0329 h 0.65392 l -0.03523,-0.69061 c -0.01937,-0.37985 -0.03533,-0.80152 -0.03544,-0.93707 l -2.25e-4,-0.24645 -0.335109,-0.0693 c -1.11476,-0.23026 -1.77031,-1.08945 -1.867334,-2.44741 -0.03563,-0.49865 0.01901,-0.70085 0.189374,-0.70085 0.170943,0 0.225591,0.11892 0.225591,0.49093 0,1.06388 0.454303,1.89212 1.189347,2.16829 0.627605,0.23582 1.484575,0.1743 1.961993,-0.14084 0.589751,-0.38928 0.91111,-1.10438 0.91111,-2.02745 0,-0.37201 0.05464,-0.49093 0.225591,-0.49093 0.170365,0 0.225001,0.2022 0.189373,0.70085 -0.09702,1.35796 -0.752573,2.21715 -1.867333,2.44741 l -0.335109,0.0693 -7.38e-4,0.81519 c -4.15e-4,0.44836 -0.01544,0.87004 -0.0334,0.93706 -0.03255,0.12145 -0.03037,0.12188 0.619218,0.12188 0.358534,0 0.690435,0.0148 0.737558,0.0329 0.100978,0.0387 0.113545,0.24258 0.02068,0.33545 -0.09274,0.0927 -3.081392,0.0927 -3.174127,0 z m 1.112411,-3.607 c -0.441501,-0.15836 -0.843291,-0.56366 -0.935822,-0.94399 l -0.03583,-0.1473 0.691642,-0.0152 c 0.493978,-0.0109 0.698068,-0.0346 0.714127,-0.0829 0.01725,-0.0519 -0.148782,-0.0677 -0.713268,-0.0677 h -0.735756 v -0.32343 -0.32342 l 0.713265,-0.0151 c 0.51135,-0.0108 0.71963,-0.0343 0.735754,-0.0828 0.01725,-0.0519 -0.148776,-0.0677 -0.713264,-0.0677 h -0.735755 v -0.32342 -0.32343 l 0.713265,-0.0151 c 0.51135,-0.0109 0.71963,-0.0343 0.735754,-0.0828 0.01725,-0.0519 -0.148776,-0.0677 -0.713264,-0.0677 h -0.735755 v -0.32343 -0.32342 l 0.713265,-0.0151 c 0.51135,-0.0109 0.71963,-0.0343 0.735754,-0.0828 0.01725,-0.0519 -0.148776,-0.0677 -0.713264,-0.0677 h -0.735755 v -0.23392 c 0,-0.35761 0.139071,-0.74836 0.356933,-1.00289 0.598573,-0.6993 1.66669,-0.6993 2.265264,0 0.325663,0.38047 0.356933,0.5766 0.356933,2.23888 0,1.77086 -0.02548,1.90214 -0.451347,2.32546 -0.436651,0.43405 -0.967203,0.56277 -1.512871,0.36704 z"
       id="path11" /><rect
       style="font-variation-settings:normal;opacity:1;vector-effect:none;fill:#e9afaf;fill-opacity:1;fill-rule:evenodd;stroke:none;stroke-width:0.318949;stroke-linecap:butt;stroke-linejoin:miter;stroke-miterlimit:4;stroke-dasharray:none;stroke-dashoffset:0;stroke-opacity:1;-inkscape-stroke:none;stop-color:#000000;stop-opacity:1"
       id="rect11"
       width="13.590632"
       height="9.0416651"
       x="38.947083"
       y="265.76367" /><text
       xml:space="preserve"
       style="font-weight:bold;font-size:7.05556px;line-height:normal;font-family:D-DIN;-inkscape-font-specification:'D-DIN Bold';text-decoration-color:#000000;fill:#f9f9f9;stroke-width:0.264583;-inkscape-stroke:none;stop-color:#000000"
       x="39.470001"
       y="272.7222"
       id="text11"><tspan
         sodipodi:role="line"
         id="tspan11"
         x="39.470001"
         y="272.7222"
         style="font-style:normal;font-variant:normal;font-weight:normal;font-stretch:normal;font-family:D-DIN;-inkscape-font-specification:D-DIN;stroke-width:0.264583;fill:#f9f9f9">M.O.</tspan></text><rect
       style="font-variation-settings:normal;vector-effect:none;fill:#e9c6af;fill-opacity:1;fill-rule:evenodd;stroke:none;stroke-width:0.318949;stroke-linecap:butt;stroke-linejoin:miter;stroke-miterlimit:4;stroke-dasharray:none;stroke-dashoffset:0;stroke-opacity:1;-inkscape-stroke:none;stop-color:#000000"
       id="rect11-2"
       width="13.590632"
       height="9.0416651"
       x="54.125217"
       y="265.76367" /><text
       xml:space="preserve"
       style="font-weight:bold;font-size:7.05556px;line-height:normal;font-family:D-DIN;-inkscape-font-specification:'D-DIN Bold';text-decoration-color:#000000;fill:#f9f9f9;stroke-width:0.264583;-inkscape-stroke:none;stop-color:#000000"
       x="56.591946"
       y="272.71866"
       id="text11-5"><tspan
         sodipodi:role="line"
         id="tspan11-0"
         x="56.591946"
         y="272.71866"
         style="font-style:normal;font-variant:normal;font-weight:normal;font-stretch:normal;font-family:D-DIN;-inkscape-font-specification:D-DIN;stroke-width:0.264583;fill:#f9f9f9">J.E.</tspan></text><rect
       style="font-variation-settings:normal;vector-effect:none;fill:#e9ddaf;fill-opacity:1;fill-rule:evenodd;stroke:none;stroke-width:0.318949;stroke-linecap:butt;stroke-linejoin:miter;stroke-miterlimit:4;stroke-dasharray:none;stroke-dashoffset:0;stroke-opacity:1;-inkscape-stroke:none;stop-color:#000000"
       id="rect11-2-8"
       width="13.590632"
       height="9.0416651"
       x="68.774185"
       y="265.76367" /><text
       xml:space="preserve"
       style="font-weight:bold;font-size:7.05556px;line-height:normal;font-family:D-DIN;-inkscape-font-specification:'D-DIN Bold';text-decoration-color:#000000;fill:#f9f9f9;stroke-width:0.264583;-inkscape-stroke:none;stop-color:#000000"
       x="70.143768"
       y="272.71866"
       id="text11-5-9"><tspan
         sodipodi:role="line"
         id="tspan11-0-5"
         x="70.143768"
         y="272.71866"
         style="font-style:normal;font-variant:normal;font-weight:normal;font-stretch:normal;font-family:D-DIN;-inkscape-font-specification:D-DIN;stroke-width:0.264583;fill:#f9f9f9">A.R.</tspan></text></g></svg>
